# xmcd
#
# Track frame offsets: 
#        150
#        14586
#        27814
#        40846
#        55994
#        70417
#        85623
#
# Disc length: 1377 seconds
#
# Revision: 0
# Processed by: cddbd v1.5.2PL0 Copyright (c) Steve Scherf et al.
# Submitted via: ExactAudioCopy v1.3
#
DISCID=53055f07
DTITLE=Colter Wall - Imaginary Appalachia
DYEAR=2016
DGENRE=Country
TTITLE0=Sleeping on the Blacktop
TTITLE1=Johnny Boy's Bones (feat. The Dead South)
TTITLE2=Caroline (feat. Belle Plaine)
TTITLE3=Living on the Sand
TTITLE4=Ballad of a Law Abiding Sophisitcate
TTITLE5=Nothin'
TTITLE6=The Devil Wears a Suit and Tie
EXTD=
EXTT0=
EXTT1=
EXTT2=
EXTT3=
EXTT4=
EXTT5=
EXTT6=
PLAYORDER=
